#N canvas 0 63 1024 669 12;
#X obj 422 307 +~;
#X obj 441 280 *~;
#X obj 423 188 mtof~;
#X obj 442 235 osc~;
#X obj 522 517 dac~;
#X text 392 154 FM;
#X obj 518 406 *~;
#X obj 521 459 *~;
#X obj 565 424 tgl 15 0 empty empty empty 17 7 0 10 -262144 -1 -1 0
1;
#X floatatom 424 155 5 0 0 0 - - -;
#X floatatom 473 200 5 0 0 0 - - -;
#X floatatom 484 240 5 0 0 0 - - -;
#X floatatom 561 293 5 0 0 0 - - -;
#X obj 561 317 mtof;
#X text 608 293 RING;
#X obj 384 117 random 128;
#X obj 643 218 random 128;
#X obj 486 132 random 5000;
#X obj 530 175 random 5000;
#X obj 601 18 bng 15 250 50 0 empty empty empty 17 7 0 10 -262144 -1
-1;
#N canvas 0 50 450 250 (subpatch) 0;
#X array onda 100 float 5;
#A 0 0 0 0 0 0 0 0 0 0 0 0 0 0 0 0 0 0 0 0 0 0 0 0 0 0 0 0 0 0 0 0
0 0 0 0 0 0 0 0 0 0 0 0 0 0 0 0 0 0 0 0 0 0 0 0 0 0 0 0 0 0 0 0 0 0
0 0 0 0 0 0 0 0 0 0 0 0 0 0 0 0 0 0 0 0 0 0 0 0 0 0 0 0 0 0 0 0 0 0
0;
#X coords 0 1 100 -1 200 140 1;
#X restore 759 418 graph;
#X obj 624 465 metro 100;
#X obj 624 490 tabwrite~ onda;
#X obj 92 368 float;
#X obj 161 367 + 1;
#X floatatom 91 424 5 0 0 0 - - -;
#X obj 89 477 <= 30000;
#X obj 140 292 metro 1000;
#X obj 138 329 bng 15 250 50 0 empty empty empty 17 7 0 10 -262144
-1 -1;
#X obj 135 232 tgl 15 0 empty empty empty 17 7 0 10 -262144 -1 -1 0
1;
#X obj 207 222 random 1000;
#X floatatom 207 262 5 0 0 0 - - -;
#X obj 235 353 float;
#X obj 304 352 + 1;
#X floatatom 252 384 5 0 0 0 - - -;
#X obj 272 425 <= 30000;
#X obj 422 348 osc~;
#X obj 561 342 phasor~;
#X msg 270 309 0;
#X text 241 286 reinicia o contador;
#X text 665 327 a fazer: seleção aleatória do oscilador eliminar
cliques reiniciar o contador ao final;
#X connect 0 0 36 0;
#X connect 1 0 0 1;
#X connect 2 0 0 0;
#X connect 3 0 1 0;
#X connect 6 0 7 0;
#X connect 7 0 4 0;
#X connect 7 0 4 1;
#X connect 7 0 22 0;
#X connect 8 0 7 1;
#X connect 8 0 21 0;
#X connect 9 0 2 0;
#X connect 10 0 3 0;
#X connect 11 0 1 1;
#X connect 12 0 13 0;
#X connect 13 0 37 0;
#X connect 15 0 9 0;
#X connect 16 0 12 0;
#X connect 17 0 10 0;
#X connect 18 0 11 0;
#X connect 19 0 15 0;
#X connect 19 0 17 0;
#X connect 19 0 18 0;
#X connect 19 0 16 0;
#X connect 21 0 22 0;
#X connect 23 0 24 0;
#X connect 23 0 25 0;
#X connect 24 0 23 1;
#X connect 25 0 26 0;
#X connect 26 0 29 0;
#X connect 27 0 28 0;
#X connect 27 0 23 0;
#X connect 27 0 32 0;
#X connect 28 0 30 0;
#X connect 28 0 19 0;
#X connect 29 0 27 0;
#X connect 30 0 31 0;
#X connect 31 0 27 1;
#X connect 32 0 33 0;
#X connect 32 0 34 0;
#X connect 33 0 32 1;
#X connect 34 0 35 0;
#X connect 35 0 8 0;
#X connect 36 0 6 0;
#X connect 37 0 6 1;
#X connect 38 0 32 1;
#X connect 38 0 23 1;
